<mxfile host="app.diagrams.net" modified="2024-05-26T05:13:17.852Z" agent="Mozilla/5.0 (Windows NT 10.0; Win64; x64) AppleWebKit/537.36 (KHTML, like Gecko) Chrome/125.0.0.0 Safari/537.36" etag="SpdMWmIJQwawY1iyr6RM" version="24.4.8" type="github" pages="7">
  <diagram id="aOuxWAGFsKa7KedxhtcM" name="USE CASE">
    <mxGraphModel dx="794" dy="493" grid="1" gridSize="10" guides="1" tooltips="1" connect="1" arrows="1" fold="1" page="1" pageScale="1" pageWidth="850" pageHeight="1100" math="0" shadow="0">
      <root>
        <mxCell id="0" />
        <mxCell id="1" parent="0" />
        <mxCell id="rLPcivs4fugQBoxBYxQB-1" style="edgeStyle=none;rounded=0;orthogonalLoop=1;jettySize=auto;html=1;" edge="1" parent="1" target="rLPcivs4fugQBoxBYxQB-10">
          <mxGeometry relative="1" as="geometry">
            <mxPoint x="220" y="190" as="sourcePoint" />
          </mxGeometry>
        </mxCell>
        <mxCell id="rLPcivs4fugQBoxBYxQB-2" style="edgeStyle=none;rounded=0;orthogonalLoop=1;jettySize=auto;html=1;entryX=0;entryY=0.5;entryDx=0;entryDy=0;" edge="1" parent="1" target="rLPcivs4fugQBoxBYxQB-12">
          <mxGeometry relative="1" as="geometry">
            <mxPoint x="220" y="190" as="sourcePoint" />
          </mxGeometry>
        </mxCell>
        <mxCell id="rLPcivs4fugQBoxBYxQB-3" style="edgeStyle=none;rounded=0;orthogonalLoop=1;jettySize=auto;html=1;entryX=0;entryY=0.5;entryDx=0;entryDy=0;" edge="1" parent="1" target="rLPcivs4fugQBoxBYxQB-13">
          <mxGeometry relative="1" as="geometry">
            <mxPoint x="220" y="190" as="sourcePoint" />
          </mxGeometry>
        </mxCell>
        <mxCell id="rLPcivs4fugQBoxBYxQB-6" value="Actor" style="shape=umlActor;verticalLabelPosition=bottom;verticalAlign=top;html=1;outlineConnect=0;" vertex="1" parent="1">
          <mxGeometry x="179" y="145" width="40" height="80" as="geometry" />
        </mxCell>
        <mxCell id="rLPcivs4fugQBoxBYxQB-10" value="Mengelola Data Transaksi" style="ellipse;whiteSpace=wrap;html=1;" vertex="1" parent="1">
          <mxGeometry x="321" y="42" width="120" height="60" as="geometry" />
        </mxCell>
        <mxCell id="rLPcivs4fugQBoxBYxQB-11" value="Mengelola Data Pemrosesan" style="ellipse;whiteSpace=wrap;html=1;" vertex="1" parent="1">
          <mxGeometry x="320" y="120" width="120" height="60" as="geometry" />
        </mxCell>
        <mxCell id="rLPcivs4fugQBoxBYxQB-12" value="Melihat Hasil" style="ellipse;whiteSpace=wrap;html=1;" vertex="1" parent="1">
          <mxGeometry x="320" y="200" width="120" height="60" as="geometry" />
        </mxCell>
        <mxCell id="rLPcivs4fugQBoxBYxQB-13" value="Logout" style="ellipse;whiteSpace=wrap;html=1;" vertex="1" parent="1">
          <mxGeometry x="320" y="280" width="120" height="60" as="geometry" />
        </mxCell>
        <mxCell id="rLPcivs4fugQBoxBYxQB-15" style="edgeStyle=none;rounded=0;orthogonalLoop=1;jettySize=auto;html=1;entryX=0.025;entryY=0.7;entryDx=0;entryDy=0;entryPerimeter=0;" edge="1" parent="1" target="rLPcivs4fugQBoxBYxQB-11">
          <mxGeometry relative="1" as="geometry">
            <mxPoint x="220" y="190" as="sourcePoint" />
          </mxGeometry>
        </mxCell>
        <mxCell id="rLPcivs4fugQBoxBYxQB-17" value="Login" style="ellipse;whiteSpace=wrap;html=1;" vertex="1" parent="1">
          <mxGeometry x="540" y="155" width="120" height="60" as="geometry" />
        </mxCell>
        <mxCell id="rLPcivs4fugQBoxBYxQB-18" value="Sistem" style="shape=umlFrame;whiteSpace=wrap;html=1;pointerEvents=0;" vertex="1" parent="1">
          <mxGeometry x="280" y="10" width="190" height="350" as="geometry" />
        </mxCell>
        <mxCell id="rLPcivs4fugQBoxBYxQB-19" value="&amp;lt;&amp;lt;&lt;span style=&quot;white-space: pre;&quot;&gt;&#x9;&lt;/span&gt;include&amp;gt;&amp;gt;" style="endArrow=open;endSize=12;dashed=1;html=1;rounded=0;entryX=0;entryY=0;entryDx=0;entryDy=0;" edge="1" parent="1" target="rLPcivs4fugQBoxBYxQB-17">
          <mxGeometry width="160" relative="1" as="geometry">
            <mxPoint x="440" y="69.58" as="sourcePoint" />
            <mxPoint x="600" y="69.58" as="targetPoint" />
          </mxGeometry>
        </mxCell>
        <mxCell id="rLPcivs4fugQBoxBYxQB-20" value="&amp;lt;&amp;lt;&lt;span style=&quot;white-space: pre;&quot;&gt;&#x9;&lt;/span&gt;include&amp;gt;&amp;gt;" style="endArrow=open;endSize=12;dashed=1;html=1;rounded=0;entryX=0.049;entryY=0.344;entryDx=0;entryDy=0;entryPerimeter=0;" edge="1" parent="1" target="rLPcivs4fugQBoxBYxQB-17">
          <mxGeometry width="160" relative="1" as="geometry">
            <mxPoint x="440" y="160" as="sourcePoint" />
            <mxPoint x="585" y="319.41999999999996" as="targetPoint" />
          </mxGeometry>
        </mxCell>
        <mxCell id="rLPcivs4fugQBoxBYxQB-21" value="&amp;lt;&amp;lt;&lt;span style=&quot;white-space: pre;&quot;&gt;&#x9;&lt;/span&gt;include&amp;gt;&amp;gt;" style="endArrow=open;endSize=12;dashed=1;html=1;rounded=0;entryX=0.007;entryY=0.636;entryDx=0;entryDy=0;entryPerimeter=0;" edge="1" parent="1" target="rLPcivs4fugQBoxBYxQB-17">
          <mxGeometry width="160" relative="1" as="geometry">
            <mxPoint x="440" y="230" as="sourcePoint" />
            <mxPoint x="556" y="317" as="targetPoint" />
          </mxGeometry>
        </mxCell>
        <mxCell id="rLPcivs4fugQBoxBYxQB-22" value="&amp;lt;&amp;lt;&lt;span style=&quot;white-space: pre;&quot;&gt;&#x9;&lt;/span&gt;include&amp;gt;&amp;gt;" style="endArrow=open;endSize=12;dashed=1;html=1;rounded=0;entryX=0.069;entryY=0.858;entryDx=0;entryDy=0;entryPerimeter=0;" edge="1" parent="1" target="rLPcivs4fugQBoxBYxQB-17">
          <mxGeometry width="160" relative="1" as="geometry">
            <mxPoint x="439" y="312" as="sourcePoint" />
            <mxPoint x="550" y="346" as="targetPoint" />
          </mxGeometry>
        </mxCell>
      </root>
    </mxGraphModel>
  </diagram>
  <diagram id="WHrqkOSvwpytpBaDsr5e" name="Activity Transaksi">
    <mxGraphModel dx="794" dy="493" grid="1" gridSize="10" guides="1" tooltips="1" connect="1" arrows="1" fold="1" page="1" pageScale="1" pageWidth="850" pageHeight="1100" math="0" shadow="0">
      <root>
        <mxCell id="0" />
        <mxCell id="1" parent="0" />
        <mxCell id="Lr8RGN1qJQahBYJTPD2E-1" value="Admin" style="swimlane;whiteSpace=wrap" vertex="1" parent="1">
          <mxGeometry x="160.5" y="128" width="199.5" height="512" as="geometry">
            <mxRectangle x="164.5" y="128" width="90" height="30" as="alternateBounds" />
          </mxGeometry>
        </mxCell>
        <mxCell id="Lr8RGN1qJQahBYJTPD2E-2" value="" style="ellipse;shape=startState;fillColor=#000000;strokeColor=#ff0000;" vertex="1" parent="Lr8RGN1qJQahBYJTPD2E-1">
          <mxGeometry x="100" y="40" width="30" height="30" as="geometry" />
        </mxCell>
        <mxCell id="Lr8RGN1qJQahBYJTPD2E-3" value="" style="edgeStyle=elbowEdgeStyle;elbow=horizontal;verticalAlign=bottom;endArrow=open;endSize=8;strokeColor=#FF0000;endFill=1;rounded=0" edge="1" parent="Lr8RGN1qJQahBYJTPD2E-1" source="Lr8RGN1qJQahBYJTPD2E-2" target="Lr8RGN1qJQahBYJTPD2E-4">
          <mxGeometry x="100" y="40" as="geometry">
            <mxPoint x="115" y="110" as="targetPoint" />
          </mxGeometry>
        </mxCell>
        <mxCell id="Lr8RGN1qJQahBYJTPD2E-4" value="Masuk ke &#xa;halaman admin" style="" vertex="1" parent="Lr8RGN1qJQahBYJTPD2E-1">
          <mxGeometry x="60" y="110" width="110" height="50" as="geometry" />
        </mxCell>
        <mxCell id="Lr8RGN1qJQahBYJTPD2E-5" value="Masuk menu&#xa;Data Transaksi" style="" vertex="1" parent="Lr8RGN1qJQahBYJTPD2E-1">
          <mxGeometry x="60" y="220" width="110" height="50" as="geometry" />
        </mxCell>
        <mxCell id="Lr8RGN1qJQahBYJTPD2E-6" value="Upload File&#xa;Transaksi" style="" vertex="1" parent="Lr8RGN1qJQahBYJTPD2E-1">
          <mxGeometry x="60" y="444" width="110" height="50" as="geometry" />
        </mxCell>
        <mxCell id="Lr8RGN1qJQahBYJTPD2E-7" value="" style="endArrow=open;strokeColor=#FF0000;endFill=1;rounded=0;entryX=0.5;entryY=0;entryDx=0;entryDy=0;" edge="1" parent="Lr8RGN1qJQahBYJTPD2E-1" source="Lr8RGN1qJQahBYJTPD2E-5" target="Lr8RGN1qJQahBYJTPD2E-19">
          <mxGeometry relative="1" as="geometry" />
        </mxCell>
        <mxCell id="Lr8RGN1qJQahBYJTPD2E-19" value="Download Template&#xa;Excel Transaksi" style="" vertex="1" parent="Lr8RGN1qJQahBYJTPD2E-1">
          <mxGeometry x="60" y="332" width="110" height="50" as="geometry" />
        </mxCell>
        <mxCell id="Lr8RGN1qJQahBYJTPD2E-8" value="Sistem" style="swimlane;whiteSpace=wrap" vertex="1" parent="1">
          <mxGeometry x="360" y="128" width="199.5" height="512" as="geometry">
            <mxRectangle x="164.5" y="128" width="90" height="30" as="alternateBounds" />
          </mxGeometry>
        </mxCell>
        <mxCell id="Lr8RGN1qJQahBYJTPD2E-9" value="Menampilkan&#xa;halaman dashboard" style="" vertex="1" parent="Lr8RGN1qJQahBYJTPD2E-8">
          <mxGeometry x="60" y="110" width="110" height="50" as="geometry" />
        </mxCell>
        <mxCell id="Lr8RGN1qJQahBYJTPD2E-10" value="menampilkan data &#xa;transaksi terinput" style="" vertex="1" parent="Lr8RGN1qJQahBYJTPD2E-8">
          <mxGeometry x="65" y="351" width="110" height="50" as="geometry" />
        </mxCell>
        <mxCell id="Lr8RGN1qJQahBYJTPD2E-11" value="" style="endArrow=open;strokeColor=#FF0000;endFill=1;rounded=0" edge="1" parent="Lr8RGN1qJQahBYJTPD2E-8" source="Lr8RGN1qJQahBYJTPD2E-10">
          <mxGeometry relative="1" as="geometry">
            <mxPoint x="120" y="451" as="targetPoint" />
          </mxGeometry>
        </mxCell>
        <mxCell id="Lr8RGN1qJQahBYJTPD2E-12" value="" style="ellipse;html=1;shape=endState;fillColor=#000000;strokeColor=#ff0000;" vertex="1" parent="Lr8RGN1qJQahBYJTPD2E-8">
          <mxGeometry x="110" y="456" width="20" height="20" as="geometry" />
        </mxCell>
        <mxCell id="Lr8RGN1qJQahBYJTPD2E-13" value="" style="endArrow=open;strokeColor=#FF0000;endFill=1;rounded=0;entryX=0.5;entryY=0;entryDx=0;entryDy=0;" edge="1" parent="1" target="Lr8RGN1qJQahBYJTPD2E-5">
          <mxGeometry relative="1" as="geometry">
            <mxPoint x="480" y="290" as="sourcePoint" />
            <mxPoint x="260" y="310" as="targetPoint" />
            <Array as="points">
              <mxPoint x="480" y="320" />
              <mxPoint x="276" y="320" />
            </Array>
          </mxGeometry>
        </mxCell>
        <mxCell id="Lr8RGN1qJQahBYJTPD2E-14" value="" style="edgeStyle=elbowEdgeStyle;elbow=horizontal;verticalAlign=bottom;endArrow=open;endSize=8;strokeColor=#FF0000;endFill=1;rounded=0;exitX=1.006;exitY=0.432;exitDx=0;exitDy=0;exitPerimeter=0;entryX=0;entryY=0.44;entryDx=0;entryDy=0;entryPerimeter=0;" edge="1" parent="1">
          <mxGeometry x="100" y="40" as="geometry">
            <mxPoint x="420" y="261" as="targetPoint" />
            <mxPoint x="331.1600000000001" y="260.6" as="sourcePoint" />
          </mxGeometry>
        </mxCell>
        <mxCell id="Lr8RGN1qJQahBYJTPD2E-15" value="" style="endArrow=open;strokeColor=#FF0000;endFill=1;rounded=0;exitX=1.01;exitY=0.534;exitDx=0;exitDy=0;entryX=0;entryY=0.5;entryDx=0;entryDy=0;exitPerimeter=0;" edge="1" parent="1" source="Lr8RGN1qJQahBYJTPD2E-6" target="Lr8RGN1qJQahBYJTPD2E-10">
          <mxGeometry relative="1" as="geometry">
            <mxPoint x="285.5" y="527" as="sourcePoint" />
            <mxPoint x="285.5" y="582" as="targetPoint" />
            <Array as="points">
              <mxPoint x="400" y="599" />
              <mxPoint x="400" y="504" />
            </Array>
          </mxGeometry>
        </mxCell>
        <mxCell id="Lr8RGN1qJQahBYJTPD2E-20" value="" style="endArrow=open;strokeColor=#FF0000;endFill=1;rounded=0;entryX=0.5;entryY=0;entryDx=0;entryDy=0;" edge="1" parent="1">
          <mxGeometry relative="1" as="geometry">
            <mxPoint x="275.5" y="511" as="sourcePoint" />
            <mxPoint x="275.5" y="573" as="targetPoint" />
          </mxGeometry>
        </mxCell>
      </root>
    </mxGraphModel>
  </diagram>
  <diagram id="yZZLOZTVqKNX57y_dGtF" name="Activity Proses">
    <mxGraphModel dx="794" dy="493" grid="1" gridSize="10" guides="1" tooltips="1" connect="1" arrows="1" fold="1" page="1" pageScale="1" pageWidth="850" pageHeight="1100" math="0" shadow="0">
      <root>
        <mxCell id="0" />
        <mxCell id="1" parent="0" />
        <mxCell id="TF1yqGeoFuhnruz2873I-1" value="Admin" style="swimlane;whiteSpace=wrap" vertex="1" parent="1">
          <mxGeometry x="160.5" y="128" width="199.5" height="392" as="geometry">
            <mxRectangle x="164.5" y="128" width="90" height="30" as="alternateBounds" />
          </mxGeometry>
        </mxCell>
        <mxCell id="TF1yqGeoFuhnruz2873I-2" value="" style="ellipse;shape=startState;fillColor=#000000;strokeColor=#ff0000;" vertex="1" parent="TF1yqGeoFuhnruz2873I-1">
          <mxGeometry x="100" y="40" width="30" height="30" as="geometry" />
        </mxCell>
        <mxCell id="TF1yqGeoFuhnruz2873I-3" value="" style="edgeStyle=elbowEdgeStyle;elbow=horizontal;verticalAlign=bottom;endArrow=open;endSize=8;strokeColor=#FF0000;endFill=1;rounded=0" edge="1" parent="TF1yqGeoFuhnruz2873I-1" source="TF1yqGeoFuhnruz2873I-2" target="TF1yqGeoFuhnruz2873I-4">
          <mxGeometry x="100" y="40" as="geometry">
            <mxPoint x="115" y="110" as="targetPoint" />
          </mxGeometry>
        </mxCell>
        <mxCell id="TF1yqGeoFuhnruz2873I-4" value="Masuk ke &#xa;halaman admin" style="" vertex="1" parent="TF1yqGeoFuhnruz2873I-1">
          <mxGeometry x="60" y="110" width="110" height="50" as="geometry" />
        </mxCell>
        <mxCell id="TF1yqGeoFuhnruz2873I-5" value="Masuk menu&#xa;Proses" style="" vertex="1" parent="TF1yqGeoFuhnruz2873I-1">
          <mxGeometry x="60" y="220" width="110" height="50" as="geometry" />
        </mxCell>
        <mxCell id="TF1yqGeoFuhnruz2873I-7" value="" style="endArrow=open;strokeColor=#FF0000;endFill=1;rounded=0;entryX=0.5;entryY=0;entryDx=0;entryDy=0;" edge="1" parent="TF1yqGeoFuhnruz2873I-1" source="TF1yqGeoFuhnruz2873I-5" target="TF1yqGeoFuhnruz2873I-8">
          <mxGeometry relative="1" as="geometry" />
        </mxCell>
        <mxCell id="TF1yqGeoFuhnruz2873I-8" value="Input data proses" style="" vertex="1" parent="TF1yqGeoFuhnruz2873I-1">
          <mxGeometry x="60" y="326" width="110" height="50" as="geometry" />
        </mxCell>
        <mxCell id="TF1yqGeoFuhnruz2873I-9" value="Sistem" style="swimlane;whiteSpace=wrap" vertex="1" parent="1">
          <mxGeometry x="360" y="128" width="199.5" height="392" as="geometry">
            <mxRectangle x="164.5" y="128" width="90" height="30" as="alternateBounds" />
          </mxGeometry>
        </mxCell>
        <mxCell id="TF1yqGeoFuhnruz2873I-10" value="Menampilkan&#xa;halaman dashboard" style="" vertex="1" parent="TF1yqGeoFuhnruz2873I-9">
          <mxGeometry x="60" y="110" width="110" height="50" as="geometry" />
        </mxCell>
        <mxCell id="TF1yqGeoFuhnruz2873I-11" value="Menampilkan &#xa;Hasil Proses" style="" vertex="1" parent="TF1yqGeoFuhnruz2873I-9">
          <mxGeometry x="65" y="232" width="110" height="50" as="geometry" />
        </mxCell>
        <mxCell id="TF1yqGeoFuhnruz2873I-12" value="" style="endArrow=open;strokeColor=#FF0000;endFill=1;rounded=0" edge="1" parent="TF1yqGeoFuhnruz2873I-9" source="TF1yqGeoFuhnruz2873I-11">
          <mxGeometry relative="1" as="geometry">
            <mxPoint x="120" y="332" as="targetPoint" />
          </mxGeometry>
        </mxCell>
        <mxCell id="TF1yqGeoFuhnruz2873I-13" value="" style="ellipse;html=1;shape=endState;fillColor=#000000;strokeColor=#ff0000;" vertex="1" parent="TF1yqGeoFuhnruz2873I-9">
          <mxGeometry x="110" y="337" width="20" height="20" as="geometry" />
        </mxCell>
        <mxCell id="TF1yqGeoFuhnruz2873I-14" value="" style="endArrow=open;strokeColor=#FF0000;endFill=1;rounded=0;entryX=0.5;entryY=0;entryDx=0;entryDy=0;" edge="1" parent="1" target="TF1yqGeoFuhnruz2873I-5">
          <mxGeometry relative="1" as="geometry">
            <mxPoint x="480" y="290" as="sourcePoint" />
            <mxPoint x="260" y="310" as="targetPoint" />
            <Array as="points">
              <mxPoint x="480" y="320" />
              <mxPoint x="276" y="320" />
            </Array>
          </mxGeometry>
        </mxCell>
        <mxCell id="TF1yqGeoFuhnruz2873I-15" value="" style="edgeStyle=elbowEdgeStyle;elbow=horizontal;verticalAlign=bottom;endArrow=open;endSize=8;strokeColor=#FF0000;endFill=1;rounded=0;exitX=1.006;exitY=0.432;exitDx=0;exitDy=0;exitPerimeter=0;entryX=0;entryY=0.44;entryDx=0;entryDy=0;entryPerimeter=0;" edge="1" parent="1">
          <mxGeometry x="100" y="40" as="geometry">
            <mxPoint x="420" y="261" as="targetPoint" />
            <mxPoint x="331.1600000000001" y="260.6" as="sourcePoint" />
          </mxGeometry>
        </mxCell>
        <mxCell id="TF1yqGeoFuhnruz2873I-16" value="" style="endArrow=open;strokeColor=#FF0000;endFill=1;rounded=0;exitX=1.01;exitY=0.534;exitDx=0;exitDy=0;entryX=0;entryY=0.5;entryDx=0;entryDy=0;exitPerimeter=0;" edge="1" parent="1" target="TF1yqGeoFuhnruz2873I-11">
          <mxGeometry relative="1" as="geometry">
            <mxPoint x="331.5999999999999" y="479.70000000000005" as="sourcePoint" />
            <mxPoint x="285.5" y="463" as="targetPoint" />
            <Array as="points">
              <mxPoint x="400" y="480" />
              <mxPoint x="400" y="385" />
            </Array>
          </mxGeometry>
        </mxCell>
      </root>
    </mxGraphModel>
  </diagram>
  <diagram name="Activity Hasil" id="tIs30vd-VJj-s6zl6two">
    <mxGraphModel dx="548" dy="340" grid="1" gridSize="10" guides="1" tooltips="1" connect="1" arrows="1" fold="1" page="1" pageScale="1" pageWidth="850" pageHeight="1100" math="0" shadow="0">
      <root>
        <mxCell id="8V5iFr27l7Fm-z_9XQXJ-0" />
        <mxCell id="8V5iFr27l7Fm-z_9XQXJ-1" parent="8V5iFr27l7Fm-z_9XQXJ-0" />
        <mxCell id="8V5iFr27l7Fm-z_9XQXJ-2" value="Admin" style="swimlane;whiteSpace=wrap" vertex="1" parent="8V5iFr27l7Fm-z_9XQXJ-1">
          <mxGeometry x="160.5" y="128" width="199.5" height="472" as="geometry">
            <mxRectangle x="164.5" y="128" width="90" height="30" as="alternateBounds" />
          </mxGeometry>
        </mxCell>
        <mxCell id="8V5iFr27l7Fm-z_9XQXJ-3" value="" style="ellipse;shape=startState;fillColor=#000000;strokeColor=#ff0000;" vertex="1" parent="8V5iFr27l7Fm-z_9XQXJ-2">
          <mxGeometry x="100" y="40" width="30" height="30" as="geometry" />
        </mxCell>
        <mxCell id="8V5iFr27l7Fm-z_9XQXJ-4" value="" style="edgeStyle=elbowEdgeStyle;elbow=horizontal;verticalAlign=bottom;endArrow=open;endSize=8;strokeColor=#FF0000;endFill=1;rounded=0" edge="1" parent="8V5iFr27l7Fm-z_9XQXJ-2" source="8V5iFr27l7Fm-z_9XQXJ-3" target="8V5iFr27l7Fm-z_9XQXJ-5">
          <mxGeometry x="100" y="40" as="geometry">
            <mxPoint x="115" y="110" as="targetPoint" />
          </mxGeometry>
        </mxCell>
        <mxCell id="8V5iFr27l7Fm-z_9XQXJ-5" value="Masuk ke &#xa;halaman admin" style="" vertex="1" parent="8V5iFr27l7Fm-z_9XQXJ-2">
          <mxGeometry x="60" y="110" width="110" height="50" as="geometry" />
        </mxCell>
        <mxCell id="8V5iFr27l7Fm-z_9XQXJ-6" value="Masuk menu&#xa;Hasil" style="" vertex="1" parent="8V5iFr27l7Fm-z_9XQXJ-2">
          <mxGeometry x="60" y="220" width="110" height="50" as="geometry" />
        </mxCell>
        <mxCell id="8V5iFr27l7Fm-z_9XQXJ-8" value="Pilih salah &#xa;satu log" style="" vertex="1" parent="8V5iFr27l7Fm-z_9XQXJ-2">
          <mxGeometry x="60" y="315" width="110" height="50" as="geometry" />
        </mxCell>
        <mxCell id="p179PKt8Ii1DKJUBcH1K-1" value="" style="endArrow=open;strokeColor=#FF0000;endFill=1;rounded=0;entryX=0.533;entryY=-0.001;entryDx=0;entryDy=0;exitX=0.542;exitY=1.005;exitDx=0;exitDy=0;exitPerimeter=0;entryPerimeter=0;" edge="1" parent="8V5iFr27l7Fm-z_9XQXJ-2" target="8V5iFr27l7Fm-z_9XQXJ-8">
          <mxGeometry relative="1" as="geometry">
            <mxPoint x="318.1200000000001" y="271.25" as="sourcePoint" />
            <mxPoint x="113.5" y="314" as="targetPoint" />
            <Array as="points">
              <mxPoint x="318.5" y="292" />
              <mxPoint x="118.5" y="292" />
            </Array>
          </mxGeometry>
        </mxCell>
        <mxCell id="8V5iFr27l7Fm-z_9XQXJ-9" value="Sistem" style="swimlane;whiteSpace=wrap" vertex="1" parent="8V5iFr27l7Fm-z_9XQXJ-1">
          <mxGeometry x="360" y="128" width="199.5" height="472" as="geometry">
            <mxRectangle x="164.5" y="128" width="90" height="30" as="alternateBounds" />
          </mxGeometry>
        </mxCell>
        <mxCell id="8V5iFr27l7Fm-z_9XQXJ-10" value="Menampilkan&#xa;halaman dashboard" style="" vertex="1" parent="8V5iFr27l7Fm-z_9XQXJ-9">
          <mxGeometry x="60" y="110" width="110" height="50" as="geometry" />
        </mxCell>
        <mxCell id="8V5iFr27l7Fm-z_9XQXJ-11" value="Menampilkan &#xa;Hasil Proses" style="" vertex="1" parent="8V5iFr27l7Fm-z_9XQXJ-9">
          <mxGeometry x="61" y="311" width="110" height="50" as="geometry" />
        </mxCell>
        <mxCell id="8V5iFr27l7Fm-z_9XQXJ-12" value="" style="endArrow=open;strokeColor=#FF0000;endFill=1;rounded=0" edge="1" parent="8V5iFr27l7Fm-z_9XQXJ-9" source="8V5iFr27l7Fm-z_9XQXJ-11">
          <mxGeometry relative="1" as="geometry">
            <mxPoint x="116" y="411" as="targetPoint" />
          </mxGeometry>
        </mxCell>
        <mxCell id="8V5iFr27l7Fm-z_9XQXJ-13" value="" style="ellipse;html=1;shape=endState;fillColor=#000000;strokeColor=#ff0000;" vertex="1" parent="8V5iFr27l7Fm-z_9XQXJ-9">
          <mxGeometry x="105" y="413" width="20" height="20" as="geometry" />
        </mxCell>
        <mxCell id="p179PKt8Ii1DKJUBcH1K-0" value="Menampilkan &#xa;Data Log Proses" style="" vertex="1" parent="8V5iFr27l7Fm-z_9XQXJ-9">
          <mxGeometry x="60" y="221" width="110" height="50" as="geometry" />
        </mxCell>
        <mxCell id="p179PKt8Ii1DKJUBcH1K-2" value="" style="endArrow=open;strokeColor=#FF0000;endFill=1;rounded=0;entryX=0;entryY=0.5;entryDx=0;entryDy=0;" edge="1" parent="8V5iFr27l7Fm-z_9XQXJ-9">
          <mxGeometry relative="1" as="geometry">
            <mxPoint x="-29" y="335.5" as="sourcePoint" />
            <mxPoint x="60" y="336.5" as="targetPoint" />
          </mxGeometry>
        </mxCell>
        <mxCell id="8V5iFr27l7Fm-z_9XQXJ-14" value="" style="endArrow=open;strokeColor=#FF0000;endFill=1;rounded=0;entryX=0.5;entryY=0;entryDx=0;entryDy=0;" edge="1" parent="8V5iFr27l7Fm-z_9XQXJ-1" target="8V5iFr27l7Fm-z_9XQXJ-6">
          <mxGeometry relative="1" as="geometry">
            <mxPoint x="480" y="290" as="sourcePoint" />
            <mxPoint x="260" y="310" as="targetPoint" />
            <Array as="points">
              <mxPoint x="480" y="320" />
              <mxPoint x="276" y="320" />
            </Array>
          </mxGeometry>
        </mxCell>
        <mxCell id="8V5iFr27l7Fm-z_9XQXJ-15" value="" style="edgeStyle=elbowEdgeStyle;elbow=horizontal;verticalAlign=bottom;endArrow=open;endSize=8;strokeColor=#FF0000;endFill=1;rounded=0;exitX=1.006;exitY=0.432;exitDx=0;exitDy=0;exitPerimeter=0;entryX=0;entryY=0.44;entryDx=0;entryDy=0;entryPerimeter=0;" edge="1" parent="8V5iFr27l7Fm-z_9XQXJ-1">
          <mxGeometry x="100" y="40" as="geometry">
            <mxPoint x="420" y="261" as="targetPoint" />
            <mxPoint x="331.1600000000001" y="260.6" as="sourcePoint" />
          </mxGeometry>
        </mxCell>
        <mxCell id="8V5iFr27l7Fm-z_9XQXJ-7" value="" style="endArrow=open;strokeColor=#FF0000;endFill=1;rounded=0;entryX=0;entryY=0.5;entryDx=0;entryDy=0;" edge="1" parent="8V5iFr27l7Fm-z_9XQXJ-1" source="8V5iFr27l7Fm-z_9XQXJ-6" target="p179PKt8Ii1DKJUBcH1K-0">
          <mxGeometry relative="1" as="geometry" />
        </mxCell>
      </root>
    </mxGraphModel>
  </diagram>
  <diagram id="jQrRQq5m-AVlhTqL1CF0" name="Squence Transaksi">
    <mxGraphModel dx="635" dy="394" grid="1" gridSize="10" guides="1" tooltips="1" connect="1" arrows="1" fold="1" page="1" pageScale="1" pageWidth="850" pageHeight="1100" math="0" shadow="0">
      <root>
        <mxCell id="0" />
        <mxCell id="1" parent="0" />
        <mxCell id="vXks8UVkiUpFiRP3AnR4-1" value="" style="shape=umlLifeline;perimeter=lifelinePerimeter;whiteSpace=wrap;html=1;container=1;dropTarget=0;collapsible=0;recursiveResize=0;outlineConnect=0;portConstraint=eastwest;newEdgeStyle={&quot;curved&quot;:0,&quot;rounded&quot;:0};participant=umlBoundary;" vertex="1" parent="1">
          <mxGeometry x="335" y="120" width="50" height="300" as="geometry" />
        </mxCell>
        <mxCell id="vXks8UVkiUpFiRP3AnR4-2" value="" style="html=1;points=[[0,0,0,0,5],[0,1,0,0,-5],[1,0,0,0,5],[1,1,0,0,-5]];perimeter=orthogonalPerimeter;outlineConnect=0;targetShapes=umlLifeline;portConstraint=eastwest;newEdgeStyle={&quot;curved&quot;:0,&quot;rounded&quot;:0};" vertex="1" parent="vXks8UVkiUpFiRP3AnR4-1">
          <mxGeometry x="20" y="80" width="10" height="200" as="geometry" />
        </mxCell>
        <mxCell id="vXks8UVkiUpFiRP3AnR4-3" value="" style="shape=umlLifeline;perimeter=lifelinePerimeter;whiteSpace=wrap;html=1;container=1;dropTarget=0;collapsible=0;recursiveResize=0;outlineConnect=0;portConstraint=eastwest;newEdgeStyle={&quot;curved&quot;:0,&quot;rounded&quot;:0};participant=umlControl;" vertex="1" parent="1">
          <mxGeometry x="460" y="119" width="40" height="300" as="geometry" />
        </mxCell>
        <mxCell id="vXks8UVkiUpFiRP3AnR4-5" style="edgeStyle=none;rounded=0;orthogonalLoop=1;jettySize=auto;html=1;curved=0;" edge="1" parent="vXks8UVkiUpFiRP3AnR4-3" target="vXks8UVkiUpFiRP3AnR4-3">
          <mxGeometry relative="1" as="geometry">
            <mxPoint x="19.83333333333337" y="185.75" as="sourcePoint" />
          </mxGeometry>
        </mxCell>
        <mxCell id="vXks8UVkiUpFiRP3AnR4-7" value="" style="html=1;points=[[0,0,0,0,5],[0,1,0,0,-5],[1,0,0,0,5],[1,1,0,0,-5]];perimeter=orthogonalPerimeter;outlineConnect=0;targetShapes=umlLifeline;portConstraint=eastwest;newEdgeStyle={&quot;curved&quot;:0,&quot;rounded&quot;:0};" vertex="1" parent="vXks8UVkiUpFiRP3AnR4-3">
          <mxGeometry x="15" y="231" width="10" height="29" as="geometry" />
        </mxCell>
        <mxCell id="Ya-DBXPCKcYMRWp4sNdE-8" value="" style="html=1;points=[[0,0,0,0,5],[0,1,0,0,-5],[1,0,0,0,5],[1,1,0,0,-5]];perimeter=orthogonalPerimeter;outlineConnect=0;targetShapes=umlLifeline;portConstraint=eastwest;newEdgeStyle={&quot;curved&quot;:0,&quot;rounded&quot;:0};" vertex="1" parent="vXks8UVkiUpFiRP3AnR4-3">
          <mxGeometry x="15" y="81" width="10" height="39" as="geometry" />
        </mxCell>
        <mxCell id="Ya-DBXPCKcYMRWp4sNdE-11" value="" style="html=1;points=[[0,0,0,0,5],[0,1,0,0,-5],[1,0,0,0,5],[1,1,0,0,-5]];perimeter=orthogonalPerimeter;outlineConnect=0;targetShapes=umlLifeline;portConstraint=eastwest;newEdgeStyle={&quot;curved&quot;:0,&quot;rounded&quot;:0};" vertex="1" parent="vXks8UVkiUpFiRP3AnR4-3">
          <mxGeometry x="15" y="131" width="10" height="29" as="geometry" />
        </mxCell>
        <mxCell id="vXks8UVkiUpFiRP3AnR4-8" value="" style="shape=umlLifeline;perimeter=lifelinePerimeter;whiteSpace=wrap;html=1;container=1;dropTarget=0;collapsible=0;recursiveResize=0;outlineConnect=0;portConstraint=eastwest;newEdgeStyle={&quot;curved&quot;:0,&quot;rounded&quot;:0};participant=umlBoundary;" vertex="1" parent="1">
          <mxGeometry x="575" y="119" width="50" height="300" as="geometry" />
        </mxCell>
        <mxCell id="vXks8UVkiUpFiRP3AnR4-9" value="" style="html=1;points=[[0,0,0,0,5],[0,1,0,0,-5],[1,0,0,0,5],[1,1,0,0,-5]];perimeter=orthogonalPerimeter;outlineConnect=0;targetShapes=umlLifeline;portConstraint=eastwest;newEdgeStyle={&quot;curved&quot;:0,&quot;rounded&quot;:0};" vertex="1" parent="vXks8UVkiUpFiRP3AnR4-8">
          <mxGeometry x="20" y="113" width="10" height="10" as="geometry" />
        </mxCell>
        <mxCell id="vXks8UVkiUpFiRP3AnR4-10" value="" style="html=1;points=[[0,0,0,0,5],[0,1,0,0,-5],[1,0,0,0,5],[1,1,0,0,-5]];perimeter=orthogonalPerimeter;outlineConnect=0;targetShapes=umlLifeline;portConstraint=eastwest;newEdgeStyle={&quot;curved&quot;:0,&quot;rounded&quot;:0};" vertex="1" parent="vXks8UVkiUpFiRP3AnR4-8">
          <mxGeometry x="20" y="200" width="10" height="10" as="geometry" />
        </mxCell>
        <mxCell id="vXks8UVkiUpFiRP3AnR4-11" value="" style="html=1;points=[[0,0,0,0,5],[0,1,0,0,-5],[1,0,0,0,5],[1,1,0,0,-5]];perimeter=orthogonalPerimeter;outlineConnect=0;targetShapes=umlLifeline;portConstraint=eastwest;newEdgeStyle={&quot;curved&quot;:0,&quot;rounded&quot;:0};" vertex="1" parent="vXks8UVkiUpFiRP3AnR4-8">
          <mxGeometry x="20" y="261" width="10" height="19" as="geometry" />
        </mxCell>
        <mxCell id="vXks8UVkiUpFiRP3AnR4-12" value="" style="shape=umlLifeline;perimeter=lifelinePerimeter;whiteSpace=wrap;html=1;container=1;dropTarget=0;collapsible=0;recursiveResize=0;outlineConnect=0;portConstraint=eastwest;newEdgeStyle={&quot;curved&quot;:0,&quot;rounded&quot;:0};participant=umlActor;" vertex="1" parent="1">
          <mxGeometry x="230" y="120" width="20" height="300" as="geometry" />
        </mxCell>
        <mxCell id="vXks8UVkiUpFiRP3AnR4-13" value="" style="html=1;points=[[0,0,0,0,5],[0,1,0,0,-5],[1,0,0,0,5],[1,1,0,0,-5]];perimeter=orthogonalPerimeter;outlineConnect=0;targetShapes=umlLifeline;portConstraint=eastwest;newEdgeStyle={&quot;curved&quot;:0,&quot;rounded&quot;:0};" vertex="1" parent="vXks8UVkiUpFiRP3AnR4-12">
          <mxGeometry x="5" y="60" width="10" height="240" as="geometry" />
        </mxCell>
        <mxCell id="vXks8UVkiUpFiRP3AnR4-14" style="edgeStyle=none;rounded=0;orthogonalLoop=1;jettySize=auto;html=1;curved=0;" edge="1" parent="1" target="vXks8UVkiUpFiRP3AnR4-2">
          <mxGeometry relative="1" as="geometry">
            <mxPoint x="359.5" y="201" as="targetPoint" />
            <mxPoint x="245" y="201" as="sourcePoint" />
          </mxGeometry>
        </mxCell>
        <mxCell id="vXks8UVkiUpFiRP3AnR4-16" style="edgeStyle=none;rounded=0;orthogonalLoop=1;jettySize=auto;html=1;curved=0;" edge="1" parent="1">
          <mxGeometry relative="1" as="geometry">
            <mxPoint x="475" y="280" as="sourcePoint" />
            <mxPoint x="475" y="280" as="targetPoint" />
          </mxGeometry>
        </mxCell>
        <mxCell id="vXks8UVkiUpFiRP3AnR4-17" style="edgeStyle=none;rounded=0;orthogonalLoop=1;jettySize=auto;html=1;curved=0;" edge="1" parent="1" source="vXks8UVkiUpFiRP3AnR4-2" target="vXks8UVkiUpFiRP3AnR4-7">
          <mxGeometry relative="1" as="geometry" />
        </mxCell>
        <mxCell id="vXks8UVkiUpFiRP3AnR4-20" style="edgeStyle=none;rounded=0;orthogonalLoop=1;jettySize=auto;html=1;curved=0;" edge="1" parent="1" source="vXks8UVkiUpFiRP3AnR4-7" target="vXks8UVkiUpFiRP3AnR4-11">
          <mxGeometry relative="1" as="geometry" />
        </mxCell>
        <mxCell id="vXks8UVkiUpFiRP3AnR4-21" style="edgeStyle=none;rounded=0;orthogonalLoop=1;jettySize=auto;html=1;curved=0;" edge="1" parent="1">
          <mxGeometry relative="1" as="geometry">
            <mxPoint x="596" y="397.5" as="sourcePoint" />
            <mxPoint x="366" y="397.5" as="targetPoint" />
          </mxGeometry>
        </mxCell>
        <mxCell id="vXks8UVkiUpFiRP3AnR4-22" value="Admin" style="text;html=1;align=center;verticalAlign=middle;whiteSpace=wrap;rounded=0;" vertex="1" parent="1">
          <mxGeometry x="215" y="160" width="50" height="20" as="geometry" />
        </mxCell>
        <mxCell id="vXks8UVkiUpFiRP3AnR4-23" value="Halaman Data Transaksi" style="text;html=1;align=center;verticalAlign=middle;whiteSpace=wrap;rounded=0;" vertex="1" parent="1">
          <mxGeometry x="312.5" y="160" width="95" height="20" as="geometry" />
        </mxCell>
        <mxCell id="vXks8UVkiUpFiRP3AnR4-24" value="Aksi" style="text;html=1;align=center;verticalAlign=middle;whiteSpace=wrap;rounded=0;" vertex="1" parent="1">
          <mxGeometry x="432.5" y="160" width="95" height="20" as="geometry" />
        </mxCell>
        <mxCell id="vXks8UVkiUpFiRP3AnR4-25" value="Tabel Transaksi" style="text;html=1;align=center;verticalAlign=middle;whiteSpace=wrap;rounded=0;" vertex="1" parent="1">
          <mxGeometry x="552.5" y="160" width="95" height="20" as="geometry" />
        </mxCell>
        <mxCell id="vXks8UVkiUpFiRP3AnR4-28" value="&lt;span style=&quot;background-color: initial;&quot;&gt;Reset Data&lt;/span&gt;" style="text;html=1;align=center;verticalAlign=middle;whiteSpace=wrap;rounded=0;" vertex="1" parent="1">
          <mxGeometry x="365" y="334" width="115" height="20" as="geometry" />
        </mxCell>
        <mxCell id="vXks8UVkiUpFiRP3AnR4-29" value="Berhasil Hapus" style="text;html=1;align=center;verticalAlign=middle;whiteSpace=wrap;rounded=0;fontSize=10;fontStyle=2" vertex="1" parent="1">
          <mxGeometry x="370" y="380" width="115" height="20" as="geometry" />
        </mxCell>
        <mxCell id="vXks8UVkiUpFiRP3AnR4-32" value="&lt;span style=&quot;background-color: initial;&quot;&gt;Hapus()&lt;/span&gt;" style="text;html=1;align=center;verticalAlign=middle;whiteSpace=wrap;rounded=0;" vertex="1" parent="1">
          <mxGeometry x="480" y="360" width="115" height="20" as="geometry" />
        </mxCell>
        <mxCell id="Ya-DBXPCKcYMRWp4sNdE-9" value="Download Template" style="html=1;verticalAlign=bottom;endArrow=block;curved=0;rounded=0;entryX=0;entryY=0;entryDx=0;entryDy=5;" edge="1" target="Ya-DBXPCKcYMRWp4sNdE-8" parent="1" source="vXks8UVkiUpFiRP3AnR4-2">
          <mxGeometry relative="1" as="geometry">
            <mxPoint x="405" y="205" as="sourcePoint" />
          </mxGeometry>
        </mxCell>
        <mxCell id="Ya-DBXPCKcYMRWp4sNdE-10" value="File Template" style="html=1;verticalAlign=bottom;endArrow=open;dashed=1;endSize=8;curved=0;rounded=0;exitX=0;exitY=1;exitDx=0;exitDy=-5;" edge="1" source="Ya-DBXPCKcYMRWp4sNdE-8" parent="1" target="vXks8UVkiUpFiRP3AnR4-2">
          <mxGeometry relative="1" as="geometry">
            <mxPoint x="405" y="275" as="targetPoint" />
          </mxGeometry>
        </mxCell>
        <mxCell id="Ya-DBXPCKcYMRWp4sNdE-13" value="Upload Transaksi" style="html=1;verticalAlign=bottom;endArrow=block;curved=0;rounded=0;" edge="1" parent="1">
          <mxGeometry width="80" relative="1" as="geometry">
            <mxPoint x="365" y="270" as="sourcePoint" />
            <mxPoint x="475" y="270" as="targetPoint" />
            <Array as="points">
              <mxPoint x="420" y="270" />
            </Array>
            <mxPoint as="offset" />
          </mxGeometry>
        </mxCell>
        <mxCell id="Ya-DBXPCKcYMRWp4sNdE-15" value="Tambah()" style="html=1;verticalAlign=bottom;endArrow=block;curved=0;rounded=0;" edge="1" parent="1" source="Ya-DBXPCKcYMRWp4sNdE-8" target="vXks8UVkiUpFiRP3AnR4-9">
          <mxGeometry width="80" relative="1" as="geometry">
            <mxPoint x="495" y="240" as="sourcePoint" />
            <mxPoint x="575" y="240" as="targetPoint" />
          </mxGeometry>
        </mxCell>
      </root>
    </mxGraphModel>
  </diagram>
  <diagram name="Squence Hasil" id="374PJeYLEwQ0z6ukKHwS">
    <mxGraphModel dx="454" dy="282" grid="1" gridSize="10" guides="1" tooltips="1" connect="1" arrows="1" fold="1" page="1" pageScale="1" pageWidth="850" pageHeight="1100" math="0" shadow="0">
      <root>
        <mxCell id="3Hck4moYgnJdldBQasUL-0" />
        <mxCell id="3Hck4moYgnJdldBQasUL-1" parent="3Hck4moYgnJdldBQasUL-0" />
        <mxCell id="3Hck4moYgnJdldBQasUL-2" value="" style="shape=umlLifeline;perimeter=lifelinePerimeter;whiteSpace=wrap;html=1;container=1;dropTarget=0;collapsible=0;recursiveResize=0;outlineConnect=0;portConstraint=eastwest;newEdgeStyle={&quot;curved&quot;:0,&quot;rounded&quot;:0};participant=umlBoundary;" vertex="1" parent="3Hck4moYgnJdldBQasUL-1">
          <mxGeometry x="335" y="120" width="50" height="300" as="geometry" />
        </mxCell>
        <mxCell id="3Hck4moYgnJdldBQasUL-3" value="" style="html=1;points=[[0,0,0,0,5],[0,1,0,0,-5],[1,0,0,0,5],[1,1,0,0,-5]];perimeter=orthogonalPerimeter;outlineConnect=0;targetShapes=umlLifeline;portConstraint=eastwest;newEdgeStyle={&quot;curved&quot;:0,&quot;rounded&quot;:0};" vertex="1" parent="3Hck4moYgnJdldBQasUL-2">
          <mxGeometry x="20" y="80" width="10" height="200" as="geometry" />
        </mxCell>
        <mxCell id="3Hck4moYgnJdldBQasUL-4" value="" style="shape=umlLifeline;perimeter=lifelinePerimeter;whiteSpace=wrap;html=1;container=1;dropTarget=0;collapsible=0;recursiveResize=0;outlineConnect=0;portConstraint=eastwest;newEdgeStyle={&quot;curved&quot;:0,&quot;rounded&quot;:0};participant=umlControl;" vertex="1" parent="3Hck4moYgnJdldBQasUL-1">
          <mxGeometry x="460" y="119" width="40" height="300" as="geometry" />
        </mxCell>
        <mxCell id="3Hck4moYgnJdldBQasUL-5" style="edgeStyle=none;rounded=0;orthogonalLoop=1;jettySize=auto;html=1;curved=0;" edge="1" parent="3Hck4moYgnJdldBQasUL-4" target="3Hck4moYgnJdldBQasUL-4">
          <mxGeometry relative="1" as="geometry">
            <mxPoint x="19.83333333333337" y="185.75" as="sourcePoint" />
          </mxGeometry>
        </mxCell>
        <mxCell id="3Hck4moYgnJdldBQasUL-6" value="" style="html=1;points=[[0,0,0,0,5],[0,1,0,0,-5],[1,0,0,0,5],[1,1,0,0,-5]];perimeter=orthogonalPerimeter;outlineConnect=0;targetShapes=umlLifeline;portConstraint=eastwest;newEdgeStyle={&quot;curved&quot;:0,&quot;rounded&quot;:0};" vertex="1" parent="3Hck4moYgnJdldBQasUL-4">
          <mxGeometry x="15" y="231" width="10" height="29" as="geometry" />
        </mxCell>
        <mxCell id="3Hck4moYgnJdldBQasUL-7" value="" style="html=1;points=[[0,0,0,0,5],[0,1,0,0,-5],[1,0,0,0,5],[1,1,0,0,-5]];perimeter=orthogonalPerimeter;outlineConnect=0;targetShapes=umlLifeline;portConstraint=eastwest;newEdgeStyle={&quot;curved&quot;:0,&quot;rounded&quot;:0};" vertex="1" parent="3Hck4moYgnJdldBQasUL-4">
          <mxGeometry x="15" y="81" width="10" height="39" as="geometry" />
        </mxCell>
        <mxCell id="3Hck4moYgnJdldBQasUL-8" value="" style="html=1;points=[[0,0,0,0,5],[0,1,0,0,-5],[1,0,0,0,5],[1,1,0,0,-5]];perimeter=orthogonalPerimeter;outlineConnect=0;targetShapes=umlLifeline;portConstraint=eastwest;newEdgeStyle={&quot;curved&quot;:0,&quot;rounded&quot;:0};" vertex="1" parent="3Hck4moYgnJdldBQasUL-4">
          <mxGeometry x="15" y="131" width="10" height="29" as="geometry" />
        </mxCell>
        <mxCell id="3Hck4moYgnJdldBQasUL-9" value="" style="shape=umlLifeline;perimeter=lifelinePerimeter;whiteSpace=wrap;html=1;container=1;dropTarget=0;collapsible=0;recursiveResize=0;outlineConnect=0;portConstraint=eastwest;newEdgeStyle={&quot;curved&quot;:0,&quot;rounded&quot;:0};participant=umlBoundary;" vertex="1" parent="3Hck4moYgnJdldBQasUL-1">
          <mxGeometry x="575" y="119" width="50" height="300" as="geometry" />
        </mxCell>
        <mxCell id="3Hck4moYgnJdldBQasUL-10" value="" style="html=1;points=[[0,0,0,0,5],[0,1,0,0,-5],[1,0,0,0,5],[1,1,0,0,-5]];perimeter=orthogonalPerimeter;outlineConnect=0;targetShapes=umlLifeline;portConstraint=eastwest;newEdgeStyle={&quot;curved&quot;:0,&quot;rounded&quot;:0};" vertex="1" parent="3Hck4moYgnJdldBQasUL-9">
          <mxGeometry x="20" y="113" width="10" height="10" as="geometry" />
        </mxCell>
        <mxCell id="3Hck4moYgnJdldBQasUL-11" value="" style="html=1;points=[[0,0,0,0,5],[0,1,0,0,-5],[1,0,0,0,5],[1,1,0,0,-5]];perimeter=orthogonalPerimeter;outlineConnect=0;targetShapes=umlLifeline;portConstraint=eastwest;newEdgeStyle={&quot;curved&quot;:0,&quot;rounded&quot;:0};" vertex="1" parent="3Hck4moYgnJdldBQasUL-9">
          <mxGeometry x="20" y="200" width="10" height="10" as="geometry" />
        </mxCell>
        <mxCell id="3Hck4moYgnJdldBQasUL-12" value="" style="html=1;points=[[0,0,0,0,5],[0,1,0,0,-5],[1,0,0,0,5],[1,1,0,0,-5]];perimeter=orthogonalPerimeter;outlineConnect=0;targetShapes=umlLifeline;portConstraint=eastwest;newEdgeStyle={&quot;curved&quot;:0,&quot;rounded&quot;:0};" vertex="1" parent="3Hck4moYgnJdldBQasUL-9">
          <mxGeometry x="20" y="261" width="10" height="19" as="geometry" />
        </mxCell>
        <mxCell id="3Hck4moYgnJdldBQasUL-13" value="" style="shape=umlLifeline;perimeter=lifelinePerimeter;whiteSpace=wrap;html=1;container=1;dropTarget=0;collapsible=0;recursiveResize=0;outlineConnect=0;portConstraint=eastwest;newEdgeStyle={&quot;curved&quot;:0,&quot;rounded&quot;:0};participant=umlActor;" vertex="1" parent="3Hck4moYgnJdldBQasUL-1">
          <mxGeometry x="230" y="120" width="20" height="300" as="geometry" />
        </mxCell>
        <mxCell id="3Hck4moYgnJdldBQasUL-14" value="" style="html=1;points=[[0,0,0,0,5],[0,1,0,0,-5],[1,0,0,0,5],[1,1,0,0,-5]];perimeter=orthogonalPerimeter;outlineConnect=0;targetShapes=umlLifeline;portConstraint=eastwest;newEdgeStyle={&quot;curved&quot;:0,&quot;rounded&quot;:0};" vertex="1" parent="3Hck4moYgnJdldBQasUL-13">
          <mxGeometry x="5" y="60" width="10" height="240" as="geometry" />
        </mxCell>
        <mxCell id="3Hck4moYgnJdldBQasUL-15" style="edgeStyle=none;rounded=0;orthogonalLoop=1;jettySize=auto;html=1;curved=0;" edge="1" parent="3Hck4moYgnJdldBQasUL-1" target="3Hck4moYgnJdldBQasUL-3">
          <mxGeometry relative="1" as="geometry">
            <mxPoint x="359.5" y="201" as="targetPoint" />
            <mxPoint x="245" y="201" as="sourcePoint" />
          </mxGeometry>
        </mxCell>
        <mxCell id="3Hck4moYgnJdldBQasUL-16" style="edgeStyle=none;rounded=0;orthogonalLoop=1;jettySize=auto;html=1;curved=0;" edge="1" parent="3Hck4moYgnJdldBQasUL-1">
          <mxGeometry relative="1" as="geometry">
            <mxPoint x="475" y="280" as="sourcePoint" />
            <mxPoint x="475" y="280" as="targetPoint" />
          </mxGeometry>
        </mxCell>
        <mxCell id="3Hck4moYgnJdldBQasUL-17" style="edgeStyle=none;rounded=0;orthogonalLoop=1;jettySize=auto;html=1;curved=0;" edge="1" parent="3Hck4moYgnJdldBQasUL-1" source="3Hck4moYgnJdldBQasUL-3" target="3Hck4moYgnJdldBQasUL-6">
          <mxGeometry relative="1" as="geometry" />
        </mxCell>
        <mxCell id="3Hck4moYgnJdldBQasUL-18" style="edgeStyle=none;rounded=0;orthogonalLoop=1;jettySize=auto;html=1;curved=0;" edge="1" parent="3Hck4moYgnJdldBQasUL-1" source="3Hck4moYgnJdldBQasUL-6" target="3Hck4moYgnJdldBQasUL-12">
          <mxGeometry relative="1" as="geometry" />
        </mxCell>
        <mxCell id="3Hck4moYgnJdldBQasUL-19" style="edgeStyle=none;rounded=0;orthogonalLoop=1;jettySize=auto;html=1;curved=0;" edge="1" parent="3Hck4moYgnJdldBQasUL-1">
          <mxGeometry relative="1" as="geometry">
            <mxPoint x="596" y="397.5" as="sourcePoint" />
            <mxPoint x="366" y="397.5" as="targetPoint" />
          </mxGeometry>
        </mxCell>
        <mxCell id="3Hck4moYgnJdldBQasUL-20" value="Admin" style="text;html=1;align=center;verticalAlign=middle;whiteSpace=wrap;rounded=0;" vertex="1" parent="3Hck4moYgnJdldBQasUL-1">
          <mxGeometry x="215" y="160" width="50" height="20" as="geometry" />
        </mxCell>
        <mxCell id="3Hck4moYgnJdldBQasUL-21" value="Halaman Data Log Proses" style="text;html=1;align=center;verticalAlign=middle;whiteSpace=wrap;rounded=0;" vertex="1" parent="3Hck4moYgnJdldBQasUL-1">
          <mxGeometry x="312.5" y="160" width="95" height="20" as="geometry" />
        </mxCell>
        <mxCell id="3Hck4moYgnJdldBQasUL-22" value="Aksi" style="text;html=1;align=center;verticalAlign=middle;whiteSpace=wrap;rounded=0;" vertex="1" parent="3Hck4moYgnJdldBQasUL-1">
          <mxGeometry x="432.5" y="160" width="95" height="20" as="geometry" />
        </mxCell>
        <mxCell id="3Hck4moYgnJdldBQasUL-23" value="Tabel Transaksi" style="text;html=1;align=center;verticalAlign=middle;whiteSpace=wrap;rounded=0;" vertex="1" parent="3Hck4moYgnJdldBQasUL-1">
          <mxGeometry x="552.5" y="160" width="95" height="20" as="geometry" />
        </mxCell>
        <mxCell id="3Hck4moYgnJdldBQasUL-24" value="&lt;span style=&quot;background-color: initial;&quot;&gt;Reset Data&lt;/span&gt;" style="text;html=1;align=center;verticalAlign=middle;whiteSpace=wrap;rounded=0;" vertex="1" parent="3Hck4moYgnJdldBQasUL-1">
          <mxGeometry x="365" y="334" width="115" height="20" as="geometry" />
        </mxCell>
        <mxCell id="3Hck4moYgnJdldBQasUL-25" value="Berhasil Hapus" style="text;html=1;align=center;verticalAlign=middle;whiteSpace=wrap;rounded=0;fontSize=10;fontStyle=2" vertex="1" parent="3Hck4moYgnJdldBQasUL-1">
          <mxGeometry x="370" y="380" width="115" height="20" as="geometry" />
        </mxCell>
        <mxCell id="3Hck4moYgnJdldBQasUL-26" value="&lt;span style=&quot;background-color: initial;&quot;&gt;Hapus()&lt;/span&gt;" style="text;html=1;align=center;verticalAlign=middle;whiteSpace=wrap;rounded=0;" vertex="1" parent="3Hck4moYgnJdldBQasUL-1">
          <mxGeometry x="480" y="360" width="115" height="20" as="geometry" />
        </mxCell>
        <mxCell id="3Hck4moYgnJdldBQasUL-27" value="Download Template" style="html=1;verticalAlign=bottom;endArrow=block;curved=0;rounded=0;entryX=0;entryY=0;entryDx=0;entryDy=5;" edge="1" parent="3Hck4moYgnJdldBQasUL-1" source="3Hck4moYgnJdldBQasUL-3" target="3Hck4moYgnJdldBQasUL-7">
          <mxGeometry relative="1" as="geometry">
            <mxPoint x="405" y="205" as="sourcePoint" />
          </mxGeometry>
        </mxCell>
        <mxCell id="3Hck4moYgnJdldBQasUL-28" value="File Template" style="html=1;verticalAlign=bottom;endArrow=open;dashed=1;endSize=8;curved=0;rounded=0;exitX=0;exitY=1;exitDx=0;exitDy=-5;" edge="1" parent="3Hck4moYgnJdldBQasUL-1" source="3Hck4moYgnJdldBQasUL-7" target="3Hck4moYgnJdldBQasUL-3">
          <mxGeometry relative="1" as="geometry">
            <mxPoint x="405" y="275" as="targetPoint" />
          </mxGeometry>
        </mxCell>
        <mxCell id="3Hck4moYgnJdldBQasUL-29" value="Upload Transaksi" style="html=1;verticalAlign=bottom;endArrow=block;curved=0;rounded=0;" edge="1" parent="3Hck4moYgnJdldBQasUL-1">
          <mxGeometry width="80" relative="1" as="geometry">
            <mxPoint x="365" y="270" as="sourcePoint" />
            <mxPoint x="475" y="270" as="targetPoint" />
            <Array as="points">
              <mxPoint x="420" y="270" />
            </Array>
            <mxPoint as="offset" />
          </mxGeometry>
        </mxCell>
        <mxCell id="3Hck4moYgnJdldBQasUL-30" value="Tambah()" style="html=1;verticalAlign=bottom;endArrow=block;curved=0;rounded=0;" edge="1" parent="3Hck4moYgnJdldBQasUL-1" source="3Hck4moYgnJdldBQasUL-7" target="3Hck4moYgnJdldBQasUL-10">
          <mxGeometry width="80" relative="1" as="geometry">
            <mxPoint x="495" y="240" as="sourcePoint" />
            <mxPoint x="575" y="240" as="targetPoint" />
          </mxGeometry>
        </mxCell>
      </root>
    </mxGraphModel>
  </diagram>
  <diagram id="KzvtZLiX59xO0N0A7H6k" name="Squence Proses">
    <mxGraphModel dx="794" dy="493" grid="1" gridSize="10" guides="1" tooltips="1" connect="1" arrows="1" fold="1" page="1" pageScale="1" pageWidth="850" pageHeight="1100" math="0" shadow="0">
      <root>
        <mxCell id="0" />
        <mxCell id="1" parent="0" />
        <mxCell id="-D5AkQ5A7jo4lpbVYOBj-1" value="" style="shape=umlLifeline;perimeter=lifelinePerimeter;whiteSpace=wrap;html=1;container=1;dropTarget=0;collapsible=0;recursiveResize=0;outlineConnect=0;portConstraint=eastwest;newEdgeStyle={&quot;curved&quot;:0,&quot;rounded&quot;:0};participant=umlBoundary;" vertex="1" parent="1">
          <mxGeometry x="335" y="120" width="50" height="160" as="geometry" />
        </mxCell>
        <mxCell id="-D5AkQ5A7jo4lpbVYOBj-2" value="" style="html=1;points=[[0,0,0,0,5],[0,1,0,0,-5],[1,0,0,0,5],[1,1,0,0,-5]];perimeter=orthogonalPerimeter;outlineConnect=0;targetShapes=umlLifeline;portConstraint=eastwest;newEdgeStyle={&quot;curved&quot;:0,&quot;rounded&quot;:0};" vertex="1" parent="-D5AkQ5A7jo4lpbVYOBj-1">
          <mxGeometry x="20" y="80" width="10" height="60" as="geometry" />
        </mxCell>
        <mxCell id="-D5AkQ5A7jo4lpbVYOBj-3" value="" style="shape=umlLifeline;perimeter=lifelinePerimeter;whiteSpace=wrap;html=1;container=1;dropTarget=0;collapsible=0;recursiveResize=0;outlineConnect=0;portConstraint=eastwest;newEdgeStyle={&quot;curved&quot;:0,&quot;rounded&quot;:0};participant=umlControl;" vertex="1" parent="1">
          <mxGeometry x="460" y="119" width="40" height="161" as="geometry" />
        </mxCell>
        <mxCell id="-D5AkQ5A7jo4lpbVYOBj-6" value="" style="html=1;points=[[0,0,0,0,5],[0,1,0,0,-5],[1,0,0,0,5],[1,1,0,0,-5]];perimeter=orthogonalPerimeter;outlineConnect=0;targetShapes=umlLifeline;portConstraint=eastwest;newEdgeStyle={&quot;curved&quot;:0,&quot;rounded&quot;:0};" vertex="1" parent="-D5AkQ5A7jo4lpbVYOBj-3">
          <mxGeometry x="15" y="81" width="10" height="39" as="geometry" />
        </mxCell>
        <mxCell id="-D5AkQ5A7jo4lpbVYOBj-8" value="" style="shape=umlLifeline;perimeter=lifelinePerimeter;whiteSpace=wrap;html=1;container=1;dropTarget=0;collapsible=0;recursiveResize=0;outlineConnect=0;portConstraint=eastwest;newEdgeStyle={&quot;curved&quot;:0,&quot;rounded&quot;:0};participant=umlBoundary;" vertex="1" parent="1">
          <mxGeometry x="575" y="119" width="50" height="161" as="geometry" />
        </mxCell>
        <mxCell id="-D5AkQ5A7jo4lpbVYOBj-9" value="" style="html=1;points=[[0,0,0,0,5],[0,1,0,0,-5],[1,0,0,0,5],[1,1,0,0,-5]];perimeter=orthogonalPerimeter;outlineConnect=0;targetShapes=umlLifeline;portConstraint=eastwest;newEdgeStyle={&quot;curved&quot;:0,&quot;rounded&quot;:0};" vertex="1" parent="-D5AkQ5A7jo4lpbVYOBj-8">
          <mxGeometry x="20" y="113" width="10" height="10" as="geometry" />
        </mxCell>
        <mxCell id="-D5AkQ5A7jo4lpbVYOBj-12" value="" style="shape=umlLifeline;perimeter=lifelinePerimeter;whiteSpace=wrap;html=1;container=1;dropTarget=0;collapsible=0;recursiveResize=0;outlineConnect=0;portConstraint=eastwest;newEdgeStyle={&quot;curved&quot;:0,&quot;rounded&quot;:0};participant=umlActor;" vertex="1" parent="1">
          <mxGeometry x="230" y="120" width="20" height="160" as="geometry" />
        </mxCell>
        <mxCell id="-D5AkQ5A7jo4lpbVYOBj-13" value="" style="html=1;points=[[0,0,0,0,5],[0,1,0,0,-5],[1,0,0,0,5],[1,1,0,0,-5]];perimeter=orthogonalPerimeter;outlineConnect=0;targetShapes=umlLifeline;portConstraint=eastwest;newEdgeStyle={&quot;curved&quot;:0,&quot;rounded&quot;:0};" vertex="1" parent="-D5AkQ5A7jo4lpbVYOBj-12">
          <mxGeometry x="5" y="60" width="10" height="100" as="geometry" />
        </mxCell>
        <mxCell id="-D5AkQ5A7jo4lpbVYOBj-14" style="edgeStyle=none;rounded=0;orthogonalLoop=1;jettySize=auto;html=1;curved=0;" edge="1" parent="1" target="-D5AkQ5A7jo4lpbVYOBj-2">
          <mxGeometry relative="1" as="geometry">
            <mxPoint x="359.5" y="201" as="targetPoint" />
            <mxPoint x="245" y="201" as="sourcePoint" />
          </mxGeometry>
        </mxCell>
        <mxCell id="-D5AkQ5A7jo4lpbVYOBj-15" style="edgeStyle=none;rounded=0;orthogonalLoop=1;jettySize=auto;html=1;curved=0;" edge="1" parent="1">
          <mxGeometry relative="1" as="geometry">
            <mxPoint x="475" y="280" as="sourcePoint" />
            <mxPoint x="475" y="280" as="targetPoint" />
          </mxGeometry>
        </mxCell>
        <mxCell id="-D5AkQ5A7jo4lpbVYOBj-19" value="Admin" style="text;html=1;align=center;verticalAlign=middle;whiteSpace=wrap;rounded=0;" vertex="1" parent="1">
          <mxGeometry x="215" y="160" width="50" height="20" as="geometry" />
        </mxCell>
        <mxCell id="-D5AkQ5A7jo4lpbVYOBj-20" value="Halaman Proses" style="text;html=1;align=center;verticalAlign=middle;whiteSpace=wrap;rounded=0;" vertex="1" parent="1">
          <mxGeometry x="312.5" y="160" width="95" height="20" as="geometry" />
        </mxCell>
        <mxCell id="-D5AkQ5A7jo4lpbVYOBj-21" value="Aksi" style="text;html=1;align=center;verticalAlign=middle;whiteSpace=wrap;rounded=0;" vertex="1" parent="1">
          <mxGeometry x="432.5" y="160" width="95" height="20" as="geometry" />
        </mxCell>
        <mxCell id="-D5AkQ5A7jo4lpbVYOBj-22" value="Tabel Transaksi" style="text;html=1;align=center;verticalAlign=middle;whiteSpace=wrap;rounded=0;" vertex="1" parent="1">
          <mxGeometry x="552.5" y="160" width="95" height="20" as="geometry" />
        </mxCell>
        <mxCell id="-D5AkQ5A7jo4lpbVYOBj-26" value="Input Data" style="html=1;verticalAlign=bottom;endArrow=block;curved=0;rounded=0;entryX=0;entryY=0;entryDx=0;entryDy=5;" edge="1" parent="1" source="-D5AkQ5A7jo4lpbVYOBj-2" target="-D5AkQ5A7jo4lpbVYOBj-6">
          <mxGeometry relative="1" as="geometry">
            <mxPoint x="405" y="205" as="sourcePoint" />
          </mxGeometry>
        </mxCell>
        <mxCell id="-D5AkQ5A7jo4lpbVYOBj-27" value="Hasil" style="html=1;verticalAlign=bottom;endArrow=open;dashed=1;endSize=8;curved=0;rounded=0;exitX=0;exitY=1;exitDx=0;exitDy=-5;" edge="1" parent="1" source="-D5AkQ5A7jo4lpbVYOBj-6" target="-D5AkQ5A7jo4lpbVYOBj-2">
          <mxGeometry relative="1" as="geometry">
            <mxPoint x="405" y="275" as="targetPoint" />
          </mxGeometry>
        </mxCell>
        <mxCell id="-D5AkQ5A7jo4lpbVYOBj-29" value="Proses()" style="html=1;verticalAlign=bottom;endArrow=block;curved=0;rounded=0;" edge="1" parent="1" source="-D5AkQ5A7jo4lpbVYOBj-6" target="-D5AkQ5A7jo4lpbVYOBj-9">
          <mxGeometry width="80" relative="1" as="geometry">
            <mxPoint x="495" y="240" as="sourcePoint" />
            <mxPoint x="575" y="240" as="targetPoint" />
          </mxGeometry>
        </mxCell>
      </root>
    </mxGraphModel>
  </diagram>
</mxfile>
